<svg xmlns="http://www.w3.org/2000/svg" xmlns:xlink="http://www.w3.org/1999/xlink" viewBox="0 0 1793 668" width="1793" height="668" preserveAspectRatio="xMidYMid slice" style="width: 100%; height: 100%; transform: translate3d(0px, 0px, 0px); content-visibility: visible;"><defs><clipPath id="__lottie_element_16"><rect width="1793" height="668" x="0" y="0"></rect></clipPath></defs><g clip-path="url(#__lottie_element_16)"><g transform="matrix(1,0,0,1,-0.25,0.86798095703125)" opacity="1" style="display: block;"><g opacity="1" transform="matrix(1,0,0,1,319.7340087890625,333.6910095214844)"><path fill="rgb(33,33,33)" fill-opacity="1" d=" M-319.4840087890625,333.4410095214844 C-319.4840087890625,333.4410095214844 -14.539999961853027,333.4410095214844 -14.539999961853027,333.4410095214844 C169.98399353027344,333.4410095214844 319.4840087890625,184.10299682617188 319.4840087890625,0 C319.4840087890625,-184.10299682617188 169.88499450683594,-333.4410095214844 -14.539999961853027,-333.4410095214844 C-14.539999961853027,-333.4410095214844 -319.4840087890625,-333.4410095214844 -319.4840087890625,-333.4410095214844 C-319.4840087890625,-333.4410095214844 -319.4840087890625,333.4410095214844 -319.4840087890625,333.4410095214844z"></path></g></g><g transform="matrix(1,0,0,1,104.67298889160156,124.18199157714844)" opacity="1" style="display: block;"><g opacity="1" transform="matrix(1,0,0,1,207.70899963378906,207.3470001220703)"><path fill="rgb(255,251,242)" fill-opacity="1" d=" M0,-207.0970001220703 C114.5999984741211,-207.0970001220703 207.45899963378906,-114.375 207.45899963378906,0 C207.45899963378906,114.375 114.57499694824219,207.0970001220703 0,207.0970001220703 C-114.57499694824219,207.0970001220703 -207.45899963378906,114.375 -207.45899963378906,0 C-207.45899963378906,-114.375 -114.57499694824219,-207.0970001220703 0,-207.0970001220703z"></path></g></g><g transform="matrix(1,0,0,1,696.427978515625,-0.25)" opacity="1" style="display: block;"><g opacity="1" transform="matrix(1,0,0,1,257.6960144042969,332.7229919433594)"><path fill="rgb(33,33,33)" fill-opacity="1" d=" M-257.4460144042969,-332.4729919433594 C-257.4460144042969,-332.4729919433594 -257.4460144042969,332.4729919433594 -257.4460144042969,332.4729919433594 C-257.4460144042969,332.4729919433594 257.4460144042969,332.4729919433594 257.4460144042969,332.4729919433594 C257.4460144042969,332.4729919433594 257.4460144042969,224.18099975585938 257.4460144042969,224.18099975585938 C257.4460144042969,224.18099975585938 -129.93699645996094,224.18099975585938 -129.93699645996094,224.18099975585938 C-129.93699645996094,224.18099975585938 -129.93699645996094,43.70399856567383 -129.93699645996094,43.70399856567383 C-129.93699645996094,43.70399856567383 226.05599975585938,43.70399856567383 226.05599975585938,43.70399856567383 C226.05599975585938,43.70399856567383 226.05599975585938,-64.58799743652344 226.05599975585938,-64.58799743652344 C226.05599975585938,-64.58799743652344 -129.93699645996094,-64.58799743652344 -129.93699645996094,-64.58799743652344 C-129.93699645996094,-64.58799743652344 -129.93699645996094,-224.1820068359375 -129.93699645996094,-224.1820068359375 C-129.93699645996094,-224.1820068359375 252.74600219726562,-224.1820068359375 252.74600219726562,-224.1820068359375 C252.74600219726562,-224.1820068359375 252.74600219726562,-332.4729919433594 252.74600219726562,-332.4729919433594 C252.74600219726562,-332.4729919433594 -257.4460144042969,-332.4729919433594 -257.4460144042969,-332.4729919433594z"></path></g></g><g transform="matrix(1,0,0,1,1278.830078125,-0.25)" opacity="1" style="display: block;"><g opacity="1" transform="matrix(1,0,0,1,257.2099914550781,332.760009765625)"><path fill="rgb(33,33,33)" fill-opacity="1" d=" M-256.9599914550781,-332.510009765625 C-256.9599914550781,-332.510009765625 -256.9599914550781,332.510009765625 -256.9599914550781,332.510009765625 C-256.9599914550781,332.510009765625 -129.42999267578125,332.510009765625 -129.42999267578125,332.510009765625 C-129.42999267578125,332.510009765625 -129.42999267578125,49.40299987792969 -129.42999267578125,49.40299987792969 C-129.42999267578125,49.40299987792969 230.2899932861328,49.40299987792969 230.2899932861328,49.40299987792969 C230.2899932861328,49.40299987792969 230.2899932861328,-59.856998443603516 230.2899932861328,-59.856998443603516 C230.2899932861328,-59.856998443603516 -129.42999267578125,-59.856998443603516 -129.42999267578125,-59.856998443603516 C-129.42999267578125,-59.856998443603516 -129.42999267578125,-224.218994140625 -129.42999267578125,-224.218994140625 C-129.42999267578125,-224.218994140625 256.9599914550781,-224.218994140625 256.9599914550781,-224.218994140625 C256.9599914550781,-224.218994140625 256.9599914550781,-332.510009765625 256.9599914550781,-332.510009765625 C256.9599914550781,-332.510009765625 -256.9599914550781,-332.510009765625 -256.9599914550781,-332.510009765625z"></path></g></g></g></svg>