<svg xmlns="http://www.w3.org/2000/svg" xmlns:xlink="http://www.w3.org/1999/xlink" viewBox="0 0 1793 668" width="1793" height="668" preserveAspectRatio="xMidYMid slice" style="width: 100%; height: 100%; transform: translate3d(0px, 0px, 0px); content-visibility: visible;"><defs><clipPath id="__lottie_element_16"><rect width="1793" height="668" x="0" y="0"/></clipPath></defs><g clip-path="url(#__lottie_element_16)"><g transform="matrix(1,0,0,1,-0.25,0.86798095703125)" opacity="1" style="display: block;"><g opacity="1" transform="matrix(1,0,0,1,319.7340087890625,333.6910095214844)"><path fill="rgb(33,33,33)" fill-opacity="1" d=" M-319.4840087890625,333.4410095214844 C-319.4840087890625,333.4410095214844 -14.539999961853027,333.4410095214844 -14.539999961853027,333.4410095214844 C169.98399353027344,333.4410095214844 319.4840087890625,184.10299682617188 319.4840087890625,0 C319.4840087890625,-184.10299682617188 169.88499450683594,-333.4410095214844 -14.539999961853027,-333.4410095214844 C-14.539999961853027,-333.4410095214844 -319.4840087890625,-333.4410095214844 -319.4840087890625,-333.4410095214844 C-319.4840087890625,-333.4410095214844 -319.4840087890625,333.4410095214844 -319.4840087890625,333.4410095214844z"/></g></g><g transform="matrix(1,0,0,1,104.67298889160156,124.18199157714844)" opacity="1" style="display: block;"><g opacity="1" transform="matrix(1,0,0,1,207.70899963378906,207.3470001220703)"><path fill="rgb(255,251,242)" fill-opacity="1" d=" M0,-207.0970001220703 C114.5999984741211,-207.0970001220703 207.45899963378906,-114.375 207.45899963378906,0 C207.45899963378906,114.375 114.57499694824219,207.0970001220703 0,207.0970001220703 C-114.57499694824219,207.0970001220703 -207.45899963378906,114.375 -207.45899963378906,0 C-207.45899963378906,-114.375 -114.57499694824219,-207.0970001220703 0,-207.0970001220703z"/></g></g></g></svg>